<?xml version="1.0" encoding="UTF-8"?>
<!DOCTYPE svg PUBLIC "-//W3C//DTD SVG 1.1//EN" "http://www.w3.org/Graphics/SVG/1.1/DTD/svg11.dtd">
<!-- Creator: CorelDRAW -->
<svg xmlns="http://www.w3.org/2000/svg" xml:space="preserve" width="83.9333mm" height="33.0453mm" version="1.1" style="shape-rendering:geometricPrecision; text-rendering:geometricPrecision; image-rendering:optimizeQuality; fill-rule:evenodd; clip-rule:evenodd"
viewBox="0 0 11401.42 4488.84"
 xmlns:xlink="http://www.w3.org/1999/xlink"
 xmlns:xodm="http://www.corel.com/coreldraw/odm/2003">
 <defs>
  <style type="text/css">
   <![CDATA[
    .str0 {stroke:white;stroke-width:35.93;stroke-miterlimit:22.9256}
    .fil2 {fill:none}
    .fil1 {fill:black}
    .fil0 {fill:white}
   ]]>
  </style>
   <clipPath id="id0">
    <path d="M1163 17.97l9075.42 0c629.78,0 1145.03,515.24 1145.03,1145.01l0 2162.87c0,629.78 -515.25,1145.01 -1145.03,1145.01l-9075.42 0c-629.78,0 -1145.03,-515.24 -1145.03,-1145.01l0 -2162.87c0,-629.78 515.25,-1145.01 1145.03,-1145.01z"/>
   </clipPath>
    <clipPath id="id1">
     <path d="M1163 17.97l9075.42 0c629.78,0 1145.03,515.24 1145.03,1145.01l0 2162.87c0,629.78 -515.25,1145.01 -1145.03,1145.01l-9075.42 0c-629.78,0 -1145.03,-515.24 -1145.03,-1145.01l0 -2162.87c0,-629.78 515.25,-1145.01 1145.03,-1145.01z"/>
    </clipPath>
    <clipPath id="id2">
     <path d="M1163 17.97l9075.42 0c629.78,0 1145.03,515.24 1145.03,1145.01l0 2162.87c0,629.78 -515.25,1145.01 -1145.03,1145.01l-9075.42 0c-629.78,0 -1145.03,-515.24 -1145.03,-1145.01l0 -2162.87c0,-629.78 515.25,-1145.01 1145.03,-1145.01z"/>
    </clipPath>
 </defs>
 <g id="Слой_x0020_1">
  <metadata id="CorelCorpID_0Corel-Layer"/>
  <g>
  </g>
  <g style="clip-path:url(#id0)">
   <g id="_2411732560848">
   </g>
   <g style="clip-path:url(#id1)">
    <polygon class="fil0" points="-3137.57,17.99 -3137.57,4470.87 14538.97,4470.87 14538.97,17.99 "/>
    <polygon id="_1" class="fil1" points="-2634.14,74.4 -2529.97,74.4 -2529.97,4414.46 -2634.14,4414.46 "/>
    <polygon id="_2" class="fil1" points="-2456.2,74.4 -2417.15,74.4 -2417.15,4414.46 -2456.2,4414.46 "/>
    <polygon id="_3" class="fil1" points="-2286.94,74.4 -2239.2,74.4 -2239.2,4414.46 -2286.94,4414.46 "/>
    <polygon id="_4" class="fil1" points="-1996.17,74.4 -1779.17,74.4 -1779.17,4414.46 -1996.17,4414.46 "/>
    <polygon id="_5" class="fil1" points="-1705.39,74.4 -1661.99,74.4 -1661.99,4414.46 -1705.39,4414.46 "/>
    <polygon id="_6" class="fil1" points="-1588.22,74.4 -1431.97,74.4 -1431.97,4414.46 -1588.22,4414.46 "/>
    <polygon id="_7" class="fil1" points="-1358.2,74.4 -1314.8,74.4 -1314.8,4414.46 -1358.2,4414.46 "/>
    <polygon id="_8" class="fil1" points="-1184.6,74.4 -1084.78,74.4 -1084.78,4414.46 -1184.6,4414.46 "/>
    <polygon id="_9" class="fil1" points="-837.41,74.4 -794.01,74.4 -794.01,4414.46 -837.41,4414.46 "/>
    <polygon id="_10" class="fil1" points="-724.57,74.4 -681.16,74.4 -681.16,4414.46 -724.57,4414.46 "/>
    <polygon id="_11" class="fil1" points="-546.63,74.4 -333.97,74.4 -333.97,4414.46 -546.63,4414.46 "/>
    <polygon id="_12" class="fil1" points="-260.2,74.4 -216.8,74.4 -216.8,4414.46 -260.2,4414.46 "/>
    <polygon id="_13" class="fil1" points="-86.6,74.4 -43.2,74.4 -43.2,4414.46 -86.6,4414.46 "/>
    <polygon id="_14" class="fil1" points="87,74.4 303.99,74.4 303.99,4414.46 87,4414.46 "/>
    <polygon id="_15" class="fil1" points="377.78,74.4 421.17,74.4 421.17,4414.46 377.78,4414.46 "/>
    <polygon id="_16" class="fil1" points="551.37,74.4 594.77,74.4 594.77,4414.46 551.37,4414.46 "/>
    <polygon id="_17" class="fil1" points="664.21,74.4 707.61,74.4 707.61,4414.46 664.21,4414.46 "/>
    <polygon id="_18" class="fil1" points="837.81,74.4 1054.8,74.4 1054.8,4414.46 837.81,4414.46 "/>
    <polygon id="_19" class="fil1" points="1185.01,74.4 1228.41,74.4 1228.41,4414.46 1185.01,4414.46 "/>
    <polygon id="_20" class="fil1" points="1302.18,74.4 1519.18,74.4 1519.18,4414.46 1302.18,4414.46 "/>
    <polygon id="_21" class="fil1" points="1649.37,74.4 1692.77,74.4 1692.77,4414.46 1649.37,4414.46 "/>
    <polygon id="_22" class="fil1" points="1822.97,74.4 1983.55,74.4 1983.55,4414.46 1822.97,4414.46 "/>
    <polygon id="_23" class="fil1" points="2113.75,74.4 2157.15,74.4 2157.15,4414.46 2113.75,4414.46 "/>
    <polygon id="_24" class="fil1" points="2287.34,74.4 2387.17,74.4 2387.17,4414.46 2287.34,4414.46 "/>
    <polygon id="_25" class="fil1" points="2460.94,74.4 2504.34,74.4 2504.34,4414.46 2460.94,4414.46 "/>
    <polygon id="_26" class="fil1" points="2573.78,74.4 2734.36,74.4 2734.36,4414.46 2573.78,4414.46 "/>
    <polygon id="_27" class="fil1" points="2864.56,74.4 2964.37,74.4 2964.37,4414.46 2864.56,4414.46 "/>
    <polygon id="_28" class="fil1" points="3094.58,74.4 3137.98,74.4 3137.98,4414.46 3094.58,4414.46 "/>
    <polygon id="_29" class="fil1" points="3211.75,74.4 3372.33,74.4 3372.33,4414.46 3211.75,4414.46 "/>
    <polygon id="_30" class="fil1" points="3502.53,74.4 3602.34,74.4 3602.34,4414.46 3502.53,4414.46 "/>
    <polygon id="_31" class="fil1" points="3732.54,74.4 3775.94,74.4 3775.94,4414.46 3732.54,4414.46 "/>
    <polygon id="_32" class="fil1" points="3906.15,74.4 4123.14,74.4 4123.14,4414.46 3906.15,4414.46 "/>
    <polygon id="_33" class="fil1" points="4196.91,74.4 4240.31,74.4 4240.31,4414.46 4196.91,4414.46 "/>
    <polygon id="_34" class="fil1" points="4370.51,74.4 4413.91,74.4 4413.91,4414.46 4370.51,4414.46 "/>
    <polygon id="_35" class="fil1" points="4544.11,74.4 4643.93,74.4 4643.93,4414.46 4544.11,4414.46 "/>
    <polygon id="_36" class="fil1" points="4774.13,74.4 4934.71,74.4 4934.71,4414.46 4774.13,4414.46 "/>
    <polygon id="_37" class="fil1" points="5004.15,74.4 5221.14,74.4 5221.14,4414.46 5004.15,4414.46 "/>
    <polygon id="_38" class="fil1" points="5294.92,74.4 5455.5,74.4 5455.5,4414.46 5294.92,4414.46 "/>
    <polygon id="_39" class="fil1" points="5524.94,74.4 5568.34,74.4 5568.34,4414.46 5524.94,4414.46 "/>
    <polygon id="_40" class="fil1" points="5642.11,74.4 5685.51,74.4 5685.51,4414.46 5642.11,4414.46 "/>
    <polygon id="_41" class="fil1" points="5759.29,74.4 5859.1,74.4 5859.1,4414.46 5759.29,4414.46 "/>
    <polygon id="_42" class="fil1" points="5989.31,74.4 6032.71,74.4 6032.71,4414.46 5989.31,4414.46 "/>
    <polygon id="_43" class="fil1" points="6280.08,74.4 6323.48,74.4 6323.48,4414.46 6280.08,4414.46 "/>
    <polygon id="_44" class="fil1" points="6392.92,74.4 6553.5,74.4 6553.5,4414.46 6392.92,4414.46 "/>
    <polygon id="_45" class="fil1" points="6683.7,74.4 6783.52,74.4 6783.52,4414.46 6683.7,4414.46 "/>
    <polygon id="_46" class="fil1" points="6913.72,74.4 6957.12,74.4 6957.12,4414.46 6913.72,4414.46 "/>
    <polygon id="_47" class="fil1" points="7030.89,74.4 7247.88,74.4 7247.88,4414.46 7030.89,4414.46 "/>
    <polygon id="_48" class="fil1" points="7378.08,74.4 7421.48,74.4 7421.48,4414.46 7378.08,4414.46 "/>
    <polygon id="_49" class="fil1" points="7551.69,74.4 7651.5,74.4 7651.5,4414.46 7551.69,4414.46 "/>
    <polygon id="_50" class="fil1" points="7898.88,74.4 7942.28,74.4 7942.28,4414.46 7898.88,4414.46 "/>
    <polygon id="_51" class="fil1" points="8072.48,74.4 8115.88,74.4 8115.88,4414.46 8072.48,4414.46 "/>
    <polygon id="_52" class="fil1" points="8189.65,74.4 8233.05,74.4 8233.05,4414.46 8189.65,4414.46 "/>
    <polygon id="_53" class="fil1" points="8302.49,74.4 8406.64,74.4 8406.64,4414.46 8302.49,4414.46 "/>
    <polygon id="_54" class="fil1" points="8536.84,74.4 8580.24,74.4 8580.24,4414.46 8536.84,4414.46 "/>
    <polygon id="_55" class="fil1" points="8823.29,74.4 8866.69,74.4 8866.69,4414.46 8823.29,4414.46 "/>
    <polygon id="_56" class="fil1" points="8940.46,74.4 8983.86,74.4 8983.86,4414.46 8940.46,4414.46 "/>
    <polygon id="_57" class="fil1" points="9114.05,74.4 9331.05,74.4 9331.05,4414.46 9114.05,4414.46 "/>
    <polygon id="_58" class="fil1" points="9461.26,74.4 9504.66,74.4 9504.66,4414.46 9461.26,4414.46 "/>
    <polygon id="_59" class="fil1" points="9634.84,74.4 9851.85,74.4 9851.85,4414.46 9634.84,4414.46 "/>
    <polygon id="_60" class="fil1" points="9925.62,74.4 9969.02,74.4 9969.02,4414.46 9925.62,4414.46 "/>
    <polygon id="_61" class="fil1" points="10099.22,74.4 10142.62,74.4 10142.62,4414.46 10099.22,4414.46 "/>
    <polygon id="_62" class="fil1" points="10385.65,74.4 10489.82,74.4 10489.82,4414.46 10385.65,4414.46 "/>
    <polygon id="_63" class="fil1" points="10559.26,74.4 10602.66,74.4 10602.66,4414.46 10559.26,4414.46 "/>
    <polygon id="_64" class="fil1" points="10732.86,74.4 10837.01,74.4 10837.01,4414.46 10732.86,4414.46 "/>
    <polygon id="_65" class="fil1" points="11080.05,74.4 11123.45,74.4 11123.45,4414.46 11080.05,4414.46 "/>
    <polygon id="_66" class="fil1" points="11253.64,74.4 11297.04,74.4 11297.04,4414.46 11253.64,4414.46 "/>
    <polygon id="_67" class="fil1" points="11370.83,74.4 11414.23,74.4 11414.23,4414.46 11370.83,4414.46 "/>
    <polygon id="_68" class="fil1" points="11661.6,74.4 11761.42,74.4 11761.42,4414.46 11661.6,4414.46 "/>
    <polygon id="_69" class="fil1" points="11891.62,74.4 11935.01,74.4 11935.01,4414.46 11891.62,4414.46 "/>
    <polygon id="_70" class="fil1" points="12008.79,74.4 12052.19,74.4 12052.19,4414.46 12008.79,4414.46 "/>
    <polygon id="_71" class="fil1" points="12238.81,74.4 12455.8,74.4 12455.8,4414.46 12238.81,4414.46 "/>
    <polygon id="_72" class="fil1" points="12529.59,74.4 12572.99,74.4 12572.99,4414.46 12529.59,4414.46 "/>
    <polygon id="_73" class="fil1" points="12642.42,74.4 12859.42,74.4 12859.42,4414.46 12642.42,4414.46 "/>
    <polygon id="_74" class="fil1" points="12933.19,74.4 12976.59,74.4 12976.59,4414.46 12933.19,4414.46 "/>
    <polygon id="_75" class="fil1" points="13163.21,74.4 13206.61,74.4 13206.61,4414.46 13163.21,4414.46 "/>
    <polygon id="_76" class="fil1" points="13280.4,74.4 13380.21,74.4 13380.21,4414.46 13280.4,4414.46 "/>
    <polygon id="_77" class="fil1" points="13571.17,74.4 13727.4,74.4 13727.4,4414.46 13571.17,4414.46 "/>
    <polygon id="_78" class="fil1" points="13801.19,74.4 13844.58,74.4 13844.58,4414.46 13801.19,4414.46 "/>
    <polygon id="_79" class="fil1" points="13918.36,74.4 14018.18,74.4 14018.18,4414.46 13918.36,4414.46 "/>
   </g>
   <g style="clip-path:url(#id2)">
    <rect class="fil2" x="-3137.57" y="17.99" width="17676.54" height="4452.88"/>
   </g>
  </g>
  <path class="fil2 str0" d="M1163 17.97l9075.42 0c629.78,0 1145.03,515.24 1145.03,1145.01l0 2162.87c0,629.78 -515.25,1145.01 -1145.03,1145.01l-9075.42 0c-629.78,0 -1145.03,-515.24 -1145.03,-1145.01l0 -2162.87c0,-629.78 515.25,-1145.01 1145.03,-1145.01z"/>
 </g>
</svg>
