<svg width="29" height="28" viewBox="0 0 29 28" fill="none" xmlns="http://www.w3.org/2000/svg">
<path fill-rule="evenodd" clip-rule="evenodd" d="M18.1063 0.726457L28.4634 6.42289C28.6259 6.51225 28.7614 6.64359 28.8557 6.80318C28.9501 6.96277 28.9999 7.14477 28.9999 7.33017V20.7945C28.9999 20.9799 28.9501 21.1619 28.8557 21.3215C28.7614 21.4811 28.6259 21.6124 28.4634 21.7017L18.1063 27.3982C17.9534 27.4825 17.7817 27.5267 17.6071 27.5267C17.4325 27.5267 17.2607 27.4825 17.1079 27.3982L12.4285 24.8244L13.4269 23.0109L16.5714 24.7405V13.6387L6.7507 8.23746C6.58832 8.14805 6.4529 8.0167 6.35859 7.85711C6.26428 7.69752 6.21453 7.51555 6.21453 7.33017C6.21453 7.1448 6.26428 6.96282 6.35859 6.80324C6.4529 6.64365 6.58832 6.51229 6.7507 6.42289L17.1079 0.726457C17.2608 0.642322 17.4325 0.598206 17.6071 0.598206C17.7816 0.598206 17.9533 0.642322 18.1063 0.726457ZM25.8151 7.33017L17.6071 2.81653L9.39903 7.33017L17.6071 11.8438L25.8151 7.33017ZM18.6428 24.7395L26.9285 20.1824V9.08053L18.6428 13.6377V24.7395ZM0 14.0623H8.28572V11.9909H0V14.0623ZM2.07143 22.3481H10.3571V20.2766H2.07143V22.3481ZM4.14286 18.2052H12.4286V16.1338H4.14286V18.2052Z" fill="#848484"/>
</svg>
