<svg width="35" height="29" viewBox="0 0 35 29" fill="none" xmlns="http://www.w3.org/2000/svg">
<path fill-rule="evenodd" clip-rule="evenodd" d="M0 0.203537H34.4848V28.115H0V0.203537ZM2.52413 2.35296H5.70071H9.30081V5.12363H5.70071V13.0297H9.30081V15.8004H5.70071V23.1948H9.30081V25.9655H5.70071H2.52413V23.1948V15.8004V13.0297V5.12363V2.35296V2.35296ZM15.1598 13.0297H18.5834V5.12363H15.1598V13.0297ZM18.5834 15.8004H15.1598V25.9655H11.9832V15.8004V13.0297V5.12363V2.35296H15.1598H18.5834H20.2777H21.7598V25.9655H18.5833V15.8004H18.5834ZM28.3604 23.1948H31.9605V25.9655H28.3604H25.1838V23.1948V5.1235V2.35283H28.3604H31.9605V5.1235H28.3604V23.1948Z" fill="#848484"/>
</svg>
