<svg width="23" height="29" viewBox="0 0 23 29" fill="none" xmlns="http://www.w3.org/2000/svg">
<path d="M11.7402 0.925537C8.82392 0.928978 6.02803 2.08901 3.96587 4.15116C1.90372 6.21332 0.743687 9.00921 0.740246 11.9255C0.736753 14.3088 1.51523 16.6273 2.95625 18.5255C2.95625 18.5255 3.25625 18.9205 3.30525 18.9775L11.7402 28.9255L20.1792 18.9725C20.2232 18.9195 20.5242 18.5255 20.5242 18.5255L20.5252 18.5225C21.9656 16.6251 22.7437 14.3077 22.7402 11.9255C22.7368 9.00921 21.5768 6.21332 19.5146 4.15116C17.4525 2.08901 14.6566 0.928978 11.7402 0.925537ZM11.7402 15.9255C10.9491 15.9255 10.1758 15.6909 9.51797 15.2514C8.86017 14.8119 8.34748 14.1872 8.04473 13.4563C7.74198 12.7254 7.66276 11.9211 7.8171 11.1452C7.97145 10.3693 8.35241 9.65652 8.91182 9.09711C9.47123 8.5377 10.184 8.15674 10.9599 8.0024C11.7358 7.84805 12.5401 7.92727 13.271 8.23002C14.0019 8.53277 14.6266 9.04546 15.0661 9.70326C15.5056 10.3611 15.7402 11.1344 15.7402 11.9255C15.7389 12.986 15.3171 14.0026 14.5672 14.7525C13.8174 15.5024 12.8007 15.9242 11.7402 15.9255Z" fill="#999999"/>
</svg>
