<svg width="581" height="130" viewBox="0 0 581 130" fill="none" xmlns="http://www.w3.org/2000/svg">
<path d="M128.452 1.35329L107.368 127.583H79.3476L55.119 79.1253C48.5224 65.8705 44.361 55.3899 42.6347 47.6836C42.758 49.5331 42.8197 50.9819 42.8197 52.03C42.8197 55.4824 42.3573 60.0445 41.4326 65.7164L31.0753 127.583H0.280891L21.3653 1.35329H55.3964L69.2677 30.5756C78.8852 50.797 85.1427 65.7472 88.0403 75.4263C87.8553 72.8986 87.7629 71.0183 87.7629 69.7853C87.7629 66.2096 88.5952 59.3664 90.2597 49.2557L98.3051 1.35329H128.452ZM252.092 1.35329L239.146 79.0329C236.926 92.2261 233.998 101.998 230.36 108.348C226.723 114.636 220.743 119.753 212.42 123.699C204.097 127.583 194.172 129.525 182.643 129.525C167.724 129.525 156.102 126.35 147.78 120C139.457 113.588 135.295 104.494 135.295 92.7193C135.295 88.712 135.727 84.1498 136.59 79.0329L149.629 1.35329H188.099L175.152 79.0329C174.413 83.2867 174.043 86.4309 174.043 88.4654C174.043 92.3494 175.584 95.401 178.666 97.6205C181.811 99.8399 185.571 100.95 189.948 100.95C195.435 100.95 199.597 99.5933 202.433 96.8807C205.269 94.1064 207.365 88.5887 208.721 80.3275L221.945 1.35329H252.092ZM322.559 30.0208L306.19 127.583H269.57L285.938 30.0208H258.935L263.837 0.983392H355.203L350.394 30.0208H322.559ZM440.28 74.6865L453.967 127.583H416.606L405.509 79.5877H390.528L382.483 127.583H346.51L367.594 1.35329H422.71C437.691 1.35329 448.788 4.65159 456.001 11.2482C463.214 17.7831 466.821 26.6916 466.821 37.9737C466.821 56.0372 457.974 68.2749 440.28 74.6865ZM394.875 53.3246H409.116C422.802 53.3246 429.645 48.7008 429.645 39.4533C429.645 31.6853 423.912 27.8013 412.445 27.8013H399.221L394.875 53.3246ZM539.784 101.782H505.938L494.193 127.583H462.937L521.289 1.35329H560.868L580.566 127.583H543.298L539.784 101.782ZM537.565 75.7037L532.478 39.1758L515.833 75.7037H537.565Z" fill="black"/>
</svg>
