<svg width="21" height="20" viewBox="0 0 21 20" fill="none" xmlns="http://www.w3.org/2000/svg">
<path fill-rule="evenodd" clip-rule="evenodd" d="M7.43468 3.99609L7.7628 3.4082C9.02989 1.13574 9.66271 0 10.6095 0C11.5567 0 12.1896 1.13574 13.4567 3.4082L13.7838 3.99609C14.1437 4.6416 14.3238 4.96484 14.6036 5.17773C14.8849 5.39062 15.2345 5.46973 15.9337 5.62793L16.5694 5.77246C19.0299 6.32812 20.2599 6.60742 20.5519 7.54785C20.8448 8.48926 20.0065 9.46973 18.3297 11.4297L17.8956 11.9365C17.4186 12.4941 17.1808 12.7734 17.0738 13.1172C16.9669 13.4619 17.0025 13.834 17.0738 14.5771L17.0939 14.7666L17.1407 15.2539C17.3937 17.8711 17.5206 19.1787 16.7535 19.7607C15.9889 20.3408 14.8365 19.8115 12.5338 18.751L11.9386 18.4775C11.5948 18.3184 11.3414 18.2021 11.128 18.127C10.9347 18.0596 10.7745 18.0254 10.6095 18.0254C10.2628 18.0254 9.93565 18.1748 9.28185 18.4775L8.68468 18.751C6.38292 19.8125 5.23058 20.3418 4.46495 19.7598C3.69884 19.1787 3.82579 17.8711 4.07872 15.2539L4.14464 14.5771C4.2169 13.834 4.25255 13.4619 4.14562 13.1172C4.03868 12.7734 3.79991 12.4941 3.32384 11.9375L2.88976 11.4297C1.21251 9.46875 0.37462 8.48828 0.666612 7.54785C0.959581 6.60742 2.18956 6.3291 4.64952 5.77246L5.28478 5.62793C5.98448 5.46973 6.33458 5.39062 6.61485 5.17773C6.89464 4.96484 7.07482 4.6416 7.43468 3.99609Z" fill="#C2C2C2"/>
</svg>
