<svg width="20" height="20" viewBox="0 0 20 20" fill="none" xmlns="http://www.w3.org/2000/svg">
<path fill-rule="evenodd" clip-rule="evenodd" d="M6.8253 3.99609L7.15343 3.4082C8.42052 1.13574 9.05333 0 10.0001 0C10.9474 0 11.5802 1.13574 12.8473 3.4082L13.1744 3.99609C13.3839 4.37207 13.5328 4.63867 13.6754 4.83789C13.7779 4.98047 13.8775 5.08887 13.9942 5.17773C14.1066 5.2627 14.2291 5.32617 14.3805 5.38184C14.6095 5.46582 14.9039 5.5332 15.3243 5.62793L15.9601 5.77246C18.4205 6.32812 19.6505 6.60742 19.9425 7.54785C20.2355 8.48926 19.3971 9.46973 17.7203 11.4297L17.2862 11.9365C16.9967 12.2754 16.795 12.5117 16.6573 12.7217C16.5685 12.8574 16.5065 12.9824 16.4645 13.1172C16.3575 13.4619 16.3932 13.834 16.4645 14.5771L16.4845 14.7666L16.5314 15.2539C16.7843 17.8711 16.9112 19.1787 16.1442 19.7607C15.3795 20.3408 14.2272 19.8115 11.9244 18.751L11.3292 18.4775C10.6744 18.1748 10.3473 18.0254 10.0001 18.0254C9.65343 18.0254 9.32628 18.1748 8.67247 18.4775L8.0753 18.751C5.77355 19.8125 4.6212 20.3418 3.85558 19.7598C3.08946 19.1787 3.21642 17.8711 3.46935 15.2539L3.53526 14.5771C3.60753 13.834 3.64317 13.4619 3.53624 13.1172C3.42931 12.7734 3.19054 12.4941 2.71446 11.9375L2.28038 11.4297C0.603135 9.46875 -0.234755 8.48828 0.0572369 7.54785C0.350206 6.60742 1.58019 6.3291 4.04015 5.77246L4.6754 5.62793C5.13829 5.52344 5.44835 5.45312 5.68663 5.35645C5.80821 5.30664 5.91075 5.25 6.00548 5.17773L6.06017 5.13379C6.23302 4.98633 6.37218 4.78613 6.55235 4.47852C6.63292 4.34082 6.72179 4.18164 6.8253 3.99609ZM6.07042 5.125L6.07823 5.11914L6.09435 5.10352C6.08653 5.11133 6.07872 5.11816 6.07042 5.125Z" fill="#EED600"/>
</svg>
