<svg width="41" height="41" viewBox="0 0 41 41" fill="none" xmlns="http://www.w3.org/2000/svg">
<path fill-rule="evenodd" clip-rule="evenodd" d="M20.9174 40.2042C31.9634 40.2042 40.9174 31.2502 40.9174 20.2042C40.9174 9.15823 31.9634 0.204231 20.9174 0.204231C9.87136 0.204231 0.917358 9.15823 0.917358 20.2042V40.2042H20.9174ZM10.9174 12.2042C9.81279 12.2042 8.91736 13.0997 8.91736 14.2042C8.91736 15.3088 9.81279 16.2042 10.9174 16.2042H28.9174C30.0219 16.2042 30.9174 15.3088 30.9174 14.2042C30.9174 13.0997 30.0219 12.2042 28.9174 12.2042H10.9174ZM10.9174 20.2042C9.81279 20.2042 8.91736 21.0997 8.91736 22.2042C8.91736 23.3088 9.81279 24.2042 10.9174 24.2042H28.9174C30.0219 24.2042 30.9174 23.3088 30.9174 22.2042C30.9174 21.0997 30.0219 20.2042 28.9174 20.2042H10.9174ZM10.9174 28.2042C9.81279 28.2042 8.91736 29.0997 8.91736 30.2042C8.91736 31.3088 9.81279 32.2042 10.9174 32.2042H20.9174C22.0219 32.2042 22.9174 31.3088 22.9174 30.2042C22.9174 29.0997 22.0219 28.2042 20.9174 28.2042H10.9174Z" fill="#9D9D9D"/>
</svg>
