<svg width="20" height="20" viewBox="0 0 20 20" fill="none" xmlns="http://www.w3.org/2000/svg">
<path d="M6 3C6 3.79565 5.68393 4.55871 5.12132 5.12132C4.55871 5.68393 3.79565 6 3 6C2.20435 6 1.44129 5.68393 0.87868 5.12132C0.316071 4.55871 0 3.79565 0 3C0 2.20435 0.316071 1.44129 0.87868 0.87868C1.44129 0.316071 2.20435 0 3 0C3.79565 0 4.55871 0.316071 5.12132 0.87868C5.68393 1.44129 6 2.20435 6 3ZM20 3C20 3.79565 19.6839 4.55871 19.1213 5.12132C18.5587 5.68393 17.7956 6 17 6C16.2044 6 15.4413 5.68393 14.8787 5.12132C14.3161 4.55871 14 3.79565 14 3C14 2.20435 14.3161 1.44129 14.8787 0.87868C15.4413 0.316071 16.2044 0 17 0C17.7956 0 18.5587 0.316071 19.1213 0.87868C19.6839 1.44129 20 2.20435 20 3ZM6 17C6 17.7956 5.68393 18.5587 5.12132 19.1213C4.55871 19.6839 3.79565 20 3 20C2.20435 20 1.44129 19.6839 0.87868 19.1213C0.316071 18.5587 0 17.7956 0 17C0 16.2044 0.316071 15.4413 0.87868 14.8787C1.44129 14.3161 2.20435 14 3 14C3.79565 14 4.55871 14.3161 5.12132 14.8787C5.68393 15.4413 6 16.2044 6 17ZM20 17C20 17.7956 19.6839 18.5587 19.1213 19.1213C18.5587 19.6839 17.7956 20 17 20C16.2044 20 15.4413 19.6839 14.8787 19.1213C14.3161 18.5587 14 17.7956 14 17C14 16.2044 14.3161 15.4413 14.8787 14.8787C15.4413 14.3161 16.2044 14 17 14C17.7956 14 18.5587 14.3161 19.1213 14.8787C19.6839 15.4413 20 16.2044 20 17Z" fill="#9D9D9D"/>
<path opacity="0.5" d="M14.093 2.256C14.0622 2.25208 14.0311 2.25008 14 2.25H6C5.96891 2.25009 5.93785 2.25209 5.907 2.256C6.0317 2.74416 6.0317 3.25584 5.907 3.744C5.937 3.748 5.968 3.75 6 3.75H14C14.0311 3.74991 14.0622 3.74791 14.093 3.744C13.9684 3.25583 13.9684 2.74417 14.093 2.256ZM17 6C17.257 6 17.506 5.968 17.744 5.907C17.748 5.937 17.75 5.968 17.75 6V14C17.7499 14.0311 17.7479 14.0622 17.744 14.093C17.2558 13.9682 16.7442 13.9682 16.256 14.093C16.2521 14.0622 16.2501 14.0311 16.25 14V6C16.25 5.968 16.252 5.937 16.256 5.907C16.494 5.967 16.743 6 17 6ZM14.093 16.256C14.0622 16.2521 14.0311 16.2501 14 16.25H6C5.96891 16.2501 5.93785 16.2521 5.907 16.256C6.0317 16.7442 6.0317 17.2558 5.907 17.744C5.937 17.748 5.968 17.75 6 17.75H14C14.0311 17.7499 14.0622 17.7479 14.093 17.744C13.9682 17.2558 13.9682 16.7442 14.093 16.256ZM3 6C2.743 6 2.494 5.968 2.256 5.907C2.25209 5.93785 2.25009 5.96891 2.25 6V14C2.25 14.032 2.252 14.063 2.256 14.093C2.74417 13.9684 3.25583 13.9684 3.744 14.093C3.74791 14.0622 3.74991 14.0311 3.75 14V6C3.74991 5.96891 3.74791 5.93785 3.744 5.907C3.506 5.967 3.257 6 3 6Z" fill="#9D9D9D"/>
</svg>
