<svg width="17" height="17" viewBox="0 0 17 17" fill="none" xmlns="http://www.w3.org/2000/svg">
<path fill-rule="evenodd" clip-rule="evenodd" d="M6.14 2.17662L2.332 5.98462V11.3686L6.14 15.1766H11.524L15.332 11.3686V5.98462L11.524 2.17662H6.14ZM12.146 0.676619H5.518L0.832001 5.36262V11.9906L5.518 16.6766H12.146L16.832 11.9906V5.36262L12.146 0.676619ZM9.832 11.6766C9.832 11.9418 9.72664 12.1962 9.53911 12.3837C9.35157 12.5713 9.09722 12.6766 8.832 12.6766C8.56678 12.6766 8.31243 12.5713 8.12489 12.3837C7.93736 12.1962 7.832 11.9418 7.832 11.6766C7.832 11.4114 7.93736 11.157 8.12489 10.9695C8.31243 10.782 8.56678 10.6766 8.832 10.6766C9.09722 10.6766 9.35157 10.782 9.53911 10.9695C9.72664 11.157 9.832 11.4114 9.832 11.6766ZM9.582 5.42662C9.582 5.22771 9.50298 5.03694 9.36233 4.89629C9.22168 4.75564 9.03091 4.67662 8.832 4.67662C8.63309 4.67662 8.44232 4.75564 8.30167 4.89629C8.16102 5.03694 8.082 5.22771 8.082 5.42662V8.92662C8.082 9.12553 8.16102 9.3163 8.30167 9.45695C8.44232 9.5976 8.63309 9.67662 8.832 9.67662C9.03091 9.67662 9.22168 9.5976 9.36233 9.45695C9.50298 9.3163 9.582 9.12553 9.582 8.92662V5.42662Z" fill="#9D9D9D"/>
</svg>
